<svg xmlns="http://www.w3.org/2000/svg" xmlns:xlink="http://www.w3.org/1999/xlink" width="500" zoomAndPan="magnify" viewBox="0 0 375 374.999991" height="500" preserveAspectRatio="xMidYMid meet" version="1.2"><defs><clipPath id="3de676010a"><path d="M 25 21 L 52 21 L 52 49 L 25 49 Z M 25 21 "/></clipPath><clipPath id="ba74ea3aef"><path d="M 15.378906 30.722656 L 35.378906 12.707031 L 51.121094 30.179688 L 31.121094 48.195312 Z M 15.378906 30.722656 "/></clipPath><clipPath id="6d5f7a4a9f"><path d="M 25.363281 21.726562 L 51.089844 30.207031 L 31.121094 48.195312 Z M 25.363281 21.726562 "/></clipPath><clipPath id="fee3592cae"><path d="M 319 21 L 346 21 L 346 49 L 319 49 Z M 319 21 "/></clipPath><clipPath id="30804ff38e"><path d="M 335.628906 12.738281 L 355.375 31.03125 L 339.390625 48.285156 L 319.644531 29.988281 Z M 335.628906 12.738281 "/></clipPath><clipPath id="f6483b78e2"><path d="M 345.488281 21.871094 L 339.363281 48.257812 L 319.644531 29.988281 Z M 345.488281 21.871094 "/></clipPath><clipPath id="0f0974c460"><path d="M 322 325 L 349 325 L 349 352 L 322 352 Z M 322 325 "/></clipPath><clipPath id="68ee0ec7a8"><path d="M 358.671875 342.410156 L 338.90625 360.683594 L 322.941406 343.410156 L 342.707031 325.140625 Z M 358.671875 342.410156 "/></clipPath><clipPath id="5d104a2546"><path d="M 348.804688 351.53125 L 322.96875 343.386719 L 342.707031 325.140625 Z M 348.804688 351.53125 "/></clipPath><clipPath id="c3ba88edda"><path d="M 24 325 L 51 325 L 51 351 L 24 351 Z M 24 325 "/></clipPath><clipPath id="15a5354d2f"><path d="M 32.820312 360.75 L 15.207031 340.394531 L 32.992188 325.003906 L 50.605469 345.363281 Z M 32.820312 360.75 "/></clipPath><clipPath id="e34d745282"><path d="M 24.027344 350.585938 L 33.019531 325.035156 L 50.605469 345.363281 Z M 24.027344 350.585938 "/></clipPath></defs><g id="8b412110e8"><path style=" stroke:none;fill-rule:evenodd;fill:#8fd4ae;fill-opacity:1;" d="M 6.15625 218.285156 L 6.078125 217.246094 C 6.011719 216.351562 5.960938 215.457031 5.914062 214.5625 C 5.902344 214.25 5.878906 213.929688 5.871094 213.613281 C 5.832031 212.804688 5.796875 211.988281 5.769531 211.175781 C 5.757812 210.894531 5.753906 210.605469 5.75 210.320312 C 5.726562 209.632812 5.722656 208.933594 5.703125 208.25 L 5.703125 208.230469 L 5.710938 208.214844 C 5.703125 207.871094 5.703125 207.519531 5.699219 207.171875 C 5.699219 206.980469 5.699219 206.792969 5.699219 206.597656 C 5.703125 205.554688 5.703125 204.519531 5.730469 203.476562 L 5.738281 202.933594 C 5.757812 201.914062 5.796875 200.886719 5.835938 199.855469 L 5.863281 199.289062 C 5.917969 198.265625 5.96875 197.25 6.039062 196.234375 L 6.078125 195.613281 C 6.144531 194.609375 6.222656 193.609375 6.3125 192.601562 C 6.335938 192.398438 6.351562 192.195312 6.375 191.984375 C 6.46875 190.941406 6.578125 189.90625 6.699219 188.871094 C 6.714844 188.707031 6.738281 188.539062 6.753906 188.371094 C 6.886719 187.296875 7.023438 186.226562 7.171875 185.15625 L 7.238281 184.695312 C 7.378906 183.605469 7.550781 182.515625 7.734375 181.425781 L 7.800781 181.003906 C 7.984375 179.921875 8.167969 178.851562 8.378906 177.777344 L 8.460938 177.335938 C 8.667969 176.265625 8.882812 175.195312 9.113281 174.113281 L 9.191406 173.734375 C 9.425781 172.648438 9.675781 171.554688 9.9375 170.46875 L 10.027344 170.113281 C 10.285156 169.011719 10.5625 167.921875 10.859375 166.824219 L 10.941406 166.515625 C 11.234375 165.40625 11.542969 164.296875 11.863281 163.1875 L 11.949219 162.917969 C 12.28125 161.792969 12.621094 160.664062 12.980469 159.535156 L 13.054688 159.296875 C 13.417969 158.164062 13.796875 157.027344 14.191406 155.898438 L 14.269531 155.671875 C 14.660156 154.546875 15.058594 153.421875 15.472656 152.3125 L 15.554688 152.097656 C 15.976562 150.988281 16.40625 149.882812 16.84375 148.777344 L 16.945312 148.523438 C 17.394531 147.417969 17.851562 146.320312 18.320312 145.21875 L 18.414062 145.007812 C 18.886719 143.890625 19.386719 142.78125 19.898438 141.675781 L 19.980469 141.5 C 20.316406 140.78125 20.648438 140.050781 21 139.332031 L 21.027344 139.238281 C 21.199219 138.859375 21.378906 138.492188 21.566406 138.117188 L 21.59375 138.046875 C 21.824219 137.574219 22.066406 137.101562 22.296875 136.628906 C 22.644531 135.957031 22.984375 135.269531 23.339844 134.59375 C 23.855469 133.605469 24.382812 132.621094 24.921875 131.644531 C 25.097656 131.332031 25.265625 131.023438 25.441406 130.71875 C 25.8125 130.042969 26.195312 129.382812 26.578125 128.722656 C 26.78125 128.371094 26.996094 128.023438 27.195312 127.671875 C 27.566406 127.054688 27.9375 126.433594 28.308594 125.832031 C 28.523438 125.484375 28.730469 125.144531 28.941406 124.804688 C 29.347656 124.15625 29.757812 123.515625 30.179688 122.871094 C 30.363281 122.585938 30.550781 122.296875 30.734375 122.007812 C 31.339844 121.09375 31.953125 120.179688 32.574219 119.285156 C 32.609375 119.238281 32.644531 119.183594 32.679688 119.136719 C 33.261719 118.296875 33.859375 117.453125 34.464844 116.628906 C 34.671875 116.34375 34.882812 116.0625 35.085938 115.789062 C 35.535156 115.191406 35.972656 114.59375 36.425781 114.003906 C 36.671875 113.6875 36.914062 113.371094 37.164062 113.054688 C 37.585938 112.5 38.023438 111.957031 38.457031 111.425781 C 38.707031 111.105469 38.960938 110.785156 39.222656 110.480469 C 39.691406 109.890625 40.175781 109.320312 40.65625 108.753906 C 40.867188 108.503906 41.074219 108.25 41.292969 108.003906 C 41.984375 107.191406 42.6875 106.382812 43.40625 105.585938 C 43.507812 105.472656 43.609375 105.363281 43.710938 105.246094 C 44.324219 104.570312 44.957031 103.890625 45.578125 103.222656 C 45.828125 102.964844 46.070312 102.703125 46.324219 102.445312 C 46.816406 101.929688 47.3125 101.414062 47.8125 100.902344 C 48.097656 100.625 48.382812 100.34375 48.664062 100.058594 C 49.152344 99.5625 49.652344 99.082031 50.148438 98.59375 C 50.417969 98.335938 50.683594 98.070312 50.953125 97.8125 C 51.515625 97.273438 52.082031 96.753906 52.648438 96.226562 C 52.867188 96.027344 53.082031 95.824219 53.300781 95.628906 C 54.085938 94.914062 54.867188 94.210938 55.667969 93.519531 C 55.8125 93.394531 55.964844 93.273438 56.105469 93.144531 C 56.761719 92.585938 57.410156 92.027344 58.066406 91.480469 C 58.359375 91.242188 58.648438 91.003906 58.933594 90.773438 C 59.472656 90.339844 60.015625 89.902344 60.554688 89.46875 C 60.863281 89.230469 61.175781 88.984375 61.484375 88.742188 C 62.027344 88.320312 62.5625 87.90625 63.113281 87.492188 C 63.414062 87.265625 63.710938 87.03125 64.03125 86.804688 C 64.652344 86.347656 65.265625 85.894531 65.886719 85.449219 C 66.117188 85.285156 66.339844 85.117188 66.570312 84.953125 C 67.429688 84.34375 68.289062 83.75 69.152344 83.164062 C 69.332031 83.042969 69.519531 82.929688 69.707031 82.800781 C 70.394531 82.347656 71.089844 81.890625 71.777344 81.445312 C 72.085938 81.242188 72.390625 81.046875 72.710938 80.859375 C 73.292969 80.492188 73.875 80.128906 74.457031 79.765625 C 74.792969 79.5625 75.132812 79.359375 75.460938 79.15625 C 76.054688 78.800781 76.648438 78.453125 77.234375 78.113281 C 77.558594 77.933594 77.867188 77.738281 78.191406 77.554688 C 78.871094 77.167969 79.558594 76.789062 80.25 76.410156 C 80.480469 76.289062 80.703125 76.160156 80.933594 76.027344 C 81.847656 75.53125 82.769531 75.050781 83.691406 74.578125 C 83.90625 74.460938 84.128906 74.359375 84.355469 74.246094 C 85.070312 73.886719 85.785156 73.527344 86.503906 73.175781 C 86.828125 73.023438 87.152344 72.871094 87.480469 72.710938 C 88.109375 72.425781 88.738281 72.121094 89.363281 71.835938 C 89.710938 71.683594 90.054688 71.519531 90.402344 71.371094 C 91.039062 71.085938 91.667969 70.8125 92.304688 70.535156 C 92.636719 70.398438 92.976562 70.25 93.300781 70.109375 C 94.050781 69.796875 94.789062 69.5 95.535156 69.191406 C 95.757812 69.097656 95.972656 69.003906 96.191406 68.925781 C 97.164062 68.542969 98.125 68.175781 99.09375 67.820312 C 99.355469 67.71875 99.625 67.625 99.882812 67.539062 C 100.597656 67.273438 101.320312 67.015625 102.046875 66.765625 C 102.390625 66.644531 102.742188 66.535156 103.089844 66.414062 C 103.742188 66.191406 104.390625 65.984375 105.039062 65.777344 C 105.40625 65.65625 105.769531 65.539062 106.136719 65.429688 C 106.800781 65.222656 107.472656 65.023438 108.140625 64.824219 C 108.476562 64.726562 108.808594 64.628906 109.144531 64.53125 C 109.953125 64.292969 110.757812 64.074219 111.570312 63.859375 L 112.152344 63.695312 C 113.164062 63.425781 114.164062 63.179688 115.164062 62.9375 C 115.464844 62.871094 115.75 62.804688 116.035156 62.738281 C 116.761719 62.570312 117.480469 62.40625 118.210938 62.25 C 118.582031 62.175781 118.960938 62.097656 119.339844 62.019531 C 120.003906 61.878906 120.664062 61.75 121.324219 61.621094 C 121.703125 61.546875 122.074219 61.472656 122.453125 61.40625 C 123.144531 61.277344 123.828125 61.164062 124.519531 61.042969 C 124.871094 60.984375 125.214844 60.917969 125.566406 60.863281 C 126.429688 60.726562 127.285156 60.597656 128.152344 60.472656 C 128.316406 60.457031 128.484375 60.421875 128.660156 60.394531 C 129.683594 60.253906 130.71875 60.125 131.746094 60.003906 C 132.046875 59.96875 132.359375 59.933594 132.667969 59.902344 C 133.402344 59.824219 134.132812 59.746094 134.867188 59.679688 C 135.242188 59.644531 135.613281 59.609375 135.992188 59.582031 C 136.679688 59.523438 137.355469 59.46875 138.042969 59.417969 C 138.421875 59.390625 138.800781 59.363281 139.183594 59.339844 C 139.886719 59.296875 140.59375 59.253906 141.304688 59.226562 C 141.65625 59.214844 141.988281 59.191406 142.339844 59.183594 C 143.28125 59.144531 144.203125 59.117188 145.140625 59.09375 C 145.25 59.09375 145.367188 59.082031 145.476562 59.082031 C 146.519531 59.070312 147.566406 59.0625 148.609375 59.066406 C 148.941406 59.070312 149.269531 59.078125 149.597656 59.082031 C 150.328125 59.089844 151.054688 59.105469 151.773438 59.121094 C 152.164062 59.128906 152.546875 59.136719 152.9375 59.160156 C 153.617188 59.1875 154.300781 59.210938 154.972656 59.242188 C 155.363281 59.269531 155.753906 59.285156 156.144531 59.3125 C 156.875 59.351562 157.59375 59.40625 158.316406 59.457031 C 158.652344 59.484375 158.988281 59.5 159.324219 59.535156 C 160.355469 59.609375 161.394531 59.714844 162.429688 59.824219 L 162.46875 59.824219 C 163.519531 59.933594 164.570312 60.058594 165.625 60.199219 C 165.949219 60.234375 166.28125 60.28125 166.601562 60.324219 C 167.332031 60.421875 168.0625 60.523438 168.78125 60.636719 C 169.171875 60.699219 169.5625 60.753906 169.957031 60.824219 C 170.632812 60.933594 171.308594 61.046875 171.976562 61.164062 C 172.367188 61.230469 172.769531 61.300781 173.152344 61.378906 C 173.863281 61.5 174.570312 61.636719 175.285156 61.785156 C 175.625 61.855469 175.96875 61.917969 176.308594 61.988281 C 176.410156 62.007812 176.496094 62.027344 176.597656 62.046875 C 178.671875 62.480469 180.746094 62.964844 182.820312 63.503906 L 182.839844 63.507812 C 183.957031 63.800781 185.066406 64.101562 186.183594 64.417969 L 186.210938 64.417969 C 187.320312 64.738281 188.4375 65.074219 189.542969 65.425781 L 189.554688 65.425781 C 190.667969 65.78125 191.777344 66.144531 192.878906 66.511719 L 192.898438 66.515625 C 195.121094 67.273438 197.324219 68.085938 199.523438 68.960938 L 199.539062 68.964844 C 200.632812 69.398438 201.714844 69.851562 202.808594 70.316406 L 202.855469 70.332031 C 203.933594 70.792969 205.015625 71.265625 206.089844 71.773438 L 206.117188 71.773438 C 207.207031 72.269531 208.28125 72.78125 209.351562 73.308594 L 209.367188 73.3125 C 210.445312 73.835938 211.519531 74.375 212.597656 74.933594 L 219.800781 61.097656 C 219.203125 60.785156 218.605469 60.488281 218.003906 60.175781 C 145.886719 23.855469 57.738281 52.148438 20.34375 123.992188 C 4.308594 154.792969 0.179688 188.652344 6.3125 220.300781 C 6.257812 219.613281 6.191406 218.949219 6.15625 218.285156 Z M 6.15625 218.285156 "/><path style=" stroke:none;fill-rule:evenodd;fill:#8fd4ae;fill-opacity:1;" d="M 33.773438 148.808594 C 34.195312 147.847656 34.632812 146.890625 35.089844 145.941406 C 35.75 144.546875 36.433594 143.167969 37.152344 141.78125 C 43.675781 129.257812 52.027344 118.292969 61.714844 109.070312 C 99.257812 73.28125 156.835938 63.453125 205.410156 88.742188 L 198.210938 102.574219 C 139.4375 71.976562 67.460938 92.792969 33.773438 148.808594 Z M 33.773438 148.808594 "/><path style=" stroke:none;fill-rule:evenodd;fill:#8fd4ae;fill-opacity:1;" d="M 368.945312 153.894531 L 369.019531 154.925781 C 369.085938 155.820312 369.136719 156.714844 369.1875 157.609375 C 369.195312 157.921875 369.21875 158.242188 369.230469 158.558594 C 369.269531 159.367188 369.300781 160.183594 369.328125 161.003906 C 369.332031 161.28125 369.34375 161.570312 369.351562 161.855469 C 369.371094 162.539062 369.382812 163.238281 369.394531 163.925781 L 369.394531 163.941406 L 369.390625 163.957031 C 369.394531 164.300781 369.394531 164.652344 369.398438 165 C 369.398438 165.191406 369.398438 165.378906 369.398438 165.578125 C 369.394531 166.621094 369.394531 167.652344 369.367188 168.695312 L 369.359375 169.238281 C 369.332031 170.261719 369.300781 171.285156 369.261719 172.324219 L 369.234375 172.882812 C 369.179688 173.90625 369.128906 174.921875 369.058594 175.9375 L 369.019531 176.5625 C 368.953125 177.566406 368.871094 178.566406 368.785156 179.570312 C 368.761719 179.78125 368.746094 179.984375 368.722656 180.1875 C 368.632812 181.230469 368.519531 182.265625 368.402344 183.300781 C 368.382812 183.464844 368.363281 183.628906 368.34375 183.792969 C 368.214844 184.871094 368.078125 185.941406 367.929688 187.015625 L 367.863281 187.476562 C 367.71875 188.566406 367.550781 189.65625 367.363281 190.746094 L 367.296875 191.167969 C 367.117188 192.242188 366.929688 193.320312 366.726562 194.394531 L 366.644531 194.828125 C 366.433594 195.90625 366.21875 196.976562 365.988281 198.050781 L 365.90625 198.429688 C 365.675781 199.523438 365.429688 200.609375 365.167969 201.699219 L 365.078125 202.054688 C 364.820312 203.152344 364.539062 204.246094 364.242188 205.34375 L 364.160156 205.652344 C 363.871094 206.761719 363.5625 207.871094 363.238281 208.980469 L 363.15625 209.246094 C 362.820312 210.378906 362.476562 211.503906 362.125 212.628906 L 362.046875 212.871094 C 361.6875 214.003906 361.308594 215.132812 360.910156 216.265625 L 360.835938 216.488281 C 360.445312 217.617188 360.042969 218.734375 359.636719 219.851562 L 359.554688 220.0625 C 359.132812 221.171875 358.703125 222.277344 358.265625 223.386719 L 358.167969 223.636719 C 357.714844 224.742188 357.261719 225.84375 356.789062 226.945312 L 356.695312 227.152344 C 356.222656 228.273438 355.722656 229.382812 355.210938 230.484375 L 355.128906 230.65625 C 354.796875 231.375 354.464844 232.105469 354.109375 232.828125 L 354.058594 232.929688 C 353.890625 233.308594 353.707031 233.675781 353.519531 234.046875 L 353.492188 234.121094 C 353.261719 234.59375 353.027344 235.0625 352.785156 235.542969 C 352.445312 236.210938 352.097656 236.898438 351.746094 237.578125 C 351.230469 238.574219 350.703125 239.550781 350.167969 240.527344 C 349.996094 240.839844 349.820312 241.148438 349.644531 241.453125 C 349.273438 242.128906 348.894531 242.792969 348.507812 243.453125 C 348.304688 243.804688 348.097656 244.15625 347.894531 244.507812 C 347.519531 245.128906 347.152344 245.742188 346.777344 246.351562 C 346.566406 246.699219 346.355469 247.039062 346.148438 247.378906 C 345.742188 248.027344 345.328125 248.667969 344.90625 249.3125 C 344.726562 249.597656 344.539062 249.886719 344.347656 250.175781 C 343.742188 251.089844 343.132812 252.003906 342.507812 252.898438 C 342.472656 252.945312 342.4375 252.996094 342.398438 253.046875 C 341.816406 253.878906 341.222656 254.726562 340.613281 255.554688 C 340.40625 255.835938 340.195312 256.113281 339.992188 256.390625 C 339.542969 256.988281 339.101562 257.585938 338.652344 258.171875 C 338.40625 258.496094 338.164062 258.808594 337.910156 259.125 C 337.488281 259.679688 337.054688 260.222656 336.621094 260.757812 C 336.367188 261.078125 336.117188 261.394531 335.851562 261.710938 C 335.386719 262.292969 334.902344 262.863281 334.417969 263.433594 C 334.210938 263.6875 334.003906 263.9375 333.78125 264.1875 C 333.089844 264.992188 332.386719 265.804688 331.667969 266.601562 C 331.566406 266.714844 331.460938 266.828125 331.363281 266.941406 C 330.746094 267.617188 330.121094 268.296875 329.496094 268.96875 C 329.246094 269.226562 329.007812 269.484375 328.75 269.742188 C 328.257812 270.257812 327.765625 270.773438 327.261719 271.285156 C 326.976562 271.566406 326.695312 271.851562 326.410156 272.128906 C 325.921875 272.625 325.421875 273.109375 324.921875 273.589844 C 324.652344 273.847656 324.390625 274.113281 324.113281 274.375 C 323.546875 274.914062 322.984375 275.433594 322.417969 275.960938 C 322.199219 276.160156 321.984375 276.363281 321.765625 276.554688 C 320.980469 277.269531 320.195312 277.976562 319.398438 278.664062 C 319.253906 278.789062 319.101562 278.910156 318.957031 279.039062 C 318.304688 279.597656 317.65625 280.15625 317 280.699219 C 316.707031 280.9375 316.417969 281.179688 316.132812 281.410156 C 315.59375 281.84375 315.050781 282.28125 314.511719 282.714844 C 314.199219 282.953125 313.886719 283.199219 313.578125 283.441406 C 313.035156 283.863281 312.496094 284.273438 311.949219 284.691406 C 311.644531 284.917969 311.347656 285.148438 311.03125 285.378906 C 310.410156 285.835938 309.796875 286.289062 309.175781 286.734375 C 308.945312 286.898438 308.71875 287.0625 308.488281 287.230469 C 307.632812 287.839844 306.769531 288.429688 305.90625 289.019531 C 305.726562 289.140625 305.539062 289.261719 305.351562 289.386719 C 304.667969 289.84375 303.96875 290.296875 303.285156 290.738281 C 302.976562 290.941406 302.664062 291.136719 302.355469 291.324219 C 301.773438 291.691406 301.191406 292.054688 300.605469 292.417969 C 300.269531 292.625 299.929688 292.828125 299.597656 293.027344 C 299.007812 293.378906 298.414062 293.730469 297.824219 294.066406 C 297.5 294.25 297.195312 294.4375 296.871094 294.625 C 296.191406 295.015625 295.503906 295.386719 294.8125 295.765625 C 294.582031 295.886719 294.355469 296.019531 294.125 296.152344 C 293.214844 296.644531 292.292969 297.128906 291.367188 297.601562 C 291.15625 297.714844 290.929688 297.824219 290.710938 297.929688 C 289.996094 298.292969 289.277344 298.65625 288.5625 299 C 288.238281 299.15625 287.914062 299.308594 287.585938 299.46875 C 286.953125 299.753906 286.328125 300.054688 285.703125 300.339844 C 285.363281 300.492188 285.015625 300.660156 284.671875 300.808594 C 284.035156 301.085938 283.402344 301.367188 282.765625 301.636719 C 282.4375 301.777344 282.09375 301.925781 281.773438 302.070312 C 281.023438 302.382812 280.285156 302.679688 279.535156 302.988281 C 279.3125 303.074219 279.097656 303.171875 278.882812 303.25 C 277.910156 303.632812 276.945312 304.003906 275.980469 304.359375 C 275.714844 304.457031 275.453125 304.550781 275.1875 304.640625 C 274.476562 304.902344 273.75 305.160156 273.023438 305.40625 C 272.679688 305.527344 272.328125 305.640625 271.980469 305.765625 C 271.335938 305.984375 270.6875 306.191406 270.03125 306.394531 C 269.671875 306.515625 269.300781 306.632812 268.933594 306.742188 C 268.265625 306.949219 267.601562 307.148438 266.929688 307.347656 C 266.597656 307.445312 266.261719 307.542969 265.925781 307.644531 C 265.117188 307.878906 264.3125 308.097656 263.492188 308.3125 L 262.910156 308.476562 C 261.90625 308.742188 260.90625 308.992188 259.898438 309.234375 C 259.601562 309.304688 259.316406 309.367188 259.023438 309.433594 C 258.300781 309.601562 257.582031 309.765625 256.851562 309.925781 C 256.476562 310.003906 256.097656 310.082031 255.726562 310.15625 C 255.058594 310.300781 254.402344 310.425781 253.738281 310.558594 C 253.359375 310.628906 252.984375 310.707031 252.605469 310.777344 C 251.914062 310.902344 251.234375 311.015625 250.546875 311.132812 C 250.191406 311.195312 249.851562 311.261719 249.5 311.316406 C 248.636719 311.449219 247.78125 311.578125 246.914062 311.707031 C 246.746094 311.722656 246.582031 311.753906 246.40625 311.78125 C 245.386719 311.925781 244.355469 312.050781 243.320312 312.171875 C 243.019531 312.210938 242.707031 312.242188 242.398438 312.277344 C 241.664062 312.355469 240.933594 312.429688 240.199219 312.496094 C 239.824219 312.539062 239.445312 312.566406 239.070312 312.59375 C 238.386719 312.65625 237.710938 312.714844 237.023438 312.761719 C 236.652344 312.789062 236.265625 312.808594 235.882812 312.835938 C 235.179688 312.875 234.472656 312.917969 233.761719 312.953125 C 233.410156 312.964844 233.070312 312.980469 232.71875 312.996094 C 231.785156 313.035156 230.863281 313.0625 229.917969 313.082031 C 229.808594 313.082031 229.695312 313.089844 229.585938 313.09375 C 228.542969 313.105469 227.492188 313.117188 226.449219 313.109375 C 226.121094 313.105469 225.789062 313.101562 225.464844 313.09375 C 224.738281 313.089844 224.011719 313.074219 223.292969 313.054688 C 222.902344 313.050781 222.519531 313.035156 222.128906 313.019531 C 221.453125 312.984375 220.765625 312.964844 220.089844 312.929688 C 219.703125 312.90625 219.3125 312.886719 218.925781 312.863281 C 218.199219 312.824219 217.476562 312.769531 216.753906 312.722656 C 216.417969 312.695312 216.082031 312.675781 215.75 312.644531 C 214.714844 312.566406 213.679688 312.464844 212.640625 312.355469 L 212.601562 312.355469 C 211.554688 312.242188 210.5 312.117188 209.445312 311.980469 C 209.121094 311.9375 208.796875 311.890625 208.46875 311.847656 C 207.738281 311.75 207.011719 311.644531 206.289062 311.535156 C 205.898438 311.480469 205.507812 311.421875 205.113281 311.355469 C 204.4375 311.246094 203.761719 311.128906 203.09375 311.015625 C 202.703125 310.941406 202.300781 310.875 201.917969 310.800781 C 201.214844 310.671875 200.5 310.535156 199.789062 310.394531 C 199.445312 310.320312 199.101562 310.261719 198.761719 310.191406 C 198.664062 310.167969 198.574219 310.152344 198.480469 310.128906 C 196.40625 309.691406 194.332031 309.214844 192.253906 308.675781 L 192.242188 308.667969 C 191.125 308.378906 190.015625 308.078125 188.898438 307.757812 L 188.878906 307.757812 C 187.761719 307.441406 186.648438 307.105469 185.539062 306.753906 L 185.527344 306.757812 C 184.414062 306.402344 183.304688 306.039062 182.203125 305.671875 L 182.183594 305.667969 C 179.960938 304.910156 177.761719 304.089844 175.558594 303.21875 L 175.542969 303.210938 C 174.449219 302.777344 173.367188 302.332031 172.28125 301.867188 L 172.230469 301.851562 C 171.15625 301.390625 170.074219 300.910156 168.996094 300.410156 L 168.96875 300.40625 C 167.882812 299.90625 166.804688 299.394531 165.734375 298.867188 L 165.71875 298.863281 C 164.648438 298.34375 163.566406 297.804688 162.492188 297.242188 L 155.292969 311.074219 C 155.890625 311.386719 156.488281 311.683594 157.089844 311.996094 C 229.207031 348.320312 317.355469 320.023438 354.75 248.1875 C 370.785156 217.378906 374.910156 183.523438 368.785156 151.871094 C 368.835938 152.558594 368.894531 153.226562 368.945312 153.894531 Z M 368.945312 153.894531 "/><path style=" stroke:none;fill-rule:evenodd;fill:#8fd4ae;fill-opacity:1;" d="M 341.320312 223.363281 C 340.898438 224.324219 340.464844 225.28125 340.003906 226.230469 C 339.34375 227.625 338.660156 229.003906 337.9375 230.390625 C 331.417969 242.914062 323.066406 253.878906 313.378906 263.105469 C 275.835938 298.890625 218.257812 308.714844 169.683594 283.429688 L 176.882812 269.597656 C 235.664062 300.199219 307.632812 279.382812 341.320312 223.363281 Z M 341.320312 223.363281 "/><path style=" stroke:none;fill-rule:evenodd;fill:#8fd4ae;fill-opacity:1;" d="M 220.339844 368.675781 L 219.304688 368.75 C 218.410156 368.8125 217.515625 368.867188 216.621094 368.917969 C 216.308594 368.925781 215.988281 368.949219 215.671875 368.960938 C 214.863281 369 214.039062 369.03125 213.226562 369.058594 C 212.949219 369.070312 212.664062 369.074219 212.378906 369.082031 C 211.691406 369.101562 210.992188 369.109375 210.300781 369.125 L 210.285156 369.125 L 210.269531 369.121094 C 209.921875 369.125 209.570312 369.125 209.226562 369.136719 C 209.035156 369.128906 208.847656 369.128906 208.648438 369.136719 C 207.605469 369.128906 206.574219 369.128906 205.53125 369.101562 L 204.988281 369.097656 C 203.964844 369.074219 202.9375 369.039062 201.90625 369 L 201.347656 368.960938 C 200.324219 368.910156 199.308594 368.863281 198.292969 368.789062 L 197.667969 368.75 C 196.664062 368.6875 195.664062 368.605469 194.660156 368.511719 C 194.457031 368.492188 194.246094 368.472656 194.042969 368.457031 C 193 368.363281 191.964844 368.253906 190.929688 368.132812 C 190.765625 368.113281 190.597656 368.097656 190.433594 368.078125 C 189.355469 367.949219 188.285156 367.8125 187.210938 367.664062 L 186.746094 367.59375 C 185.660156 367.449219 184.566406 367.28125 183.480469 367.09375 L 183.058594 367.027344 C 181.980469 366.847656 180.90625 366.660156 179.828125 366.457031 L 179.394531 366.375 C 178.320312 366.164062 177.25 365.953125 176.171875 365.722656 L 175.792969 365.644531 C 174.707031 365.40625 173.613281 365.160156 172.527344 364.898438 L 172.171875 364.808594 C 171.074219 364.550781 169.980469 364.273438 168.882812 363.976562 L 168.574219 363.894531 C 167.464844 363.601562 166.355469 363.300781 165.246094 362.96875 L 164.976562 362.886719 C 163.851562 362.554688 162.722656 362.207031 161.597656 361.859375 L 161.355469 361.785156 C 160.222656 361.421875 159.09375 361.042969 157.960938 360.648438 L 157.734375 360.570312 C 156.609375 360.179688 155.492188 359.78125 154.375 359.367188 L 154.160156 359.285156 C 153.050781 358.863281 151.949219 358.433594 150.839844 357.996094 L 150.59375 357.898438 C 149.488281 357.445312 148.386719 356.992188 147.289062 356.519531 L 147.078125 356.429688 C 145.960938 355.957031 144.855469 355.460938 143.75 354.949219 L 143.574219 354.867188 C 142.855469 354.53125 142.125 354.203125 141.402344 353.84375 L 141.296875 353.796875 C 140.917969 353.625 140.550781 353.445312 140.183594 353.257812 L 140.105469 353.230469 C 139.632812 353 139.160156 352.761719 138.691406 352.523438 C 138.015625 352.179688 137.328125 351.835938 136.652344 351.484375 C 135.664062 350.96875 134.679688 350.4375 133.710938 349.898438 C 133.398438 349.726562 133.082031 349.558594 132.78125 349.375 C 132.105469 349.007812 131.449219 348.625 130.789062 348.238281 C 130.4375 348.035156 130.085938 347.820312 129.734375 347.617188 C 129.121094 347.25 128.5 346.878906 127.894531 346.503906 C 127.542969 346.289062 127.203125 346.085938 126.867188 345.867188 C 126.222656 345.460938 125.574219 345.050781 124.9375 344.625 C 124.644531 344.445312 124.359375 344.257812 124.070312 344.066406 C 123.152344 343.460938 122.238281 342.847656 121.34375 342.226562 C 121.296875 342.195312 121.242188 342.15625 121.195312 342.121094 C 120.355469 341.535156 119.515625 340.941406 118.6875 340.339844 C 118.40625 340.128906 118.121094 339.921875 117.851562 339.71875 C 117.253906 339.269531 116.652344 338.828125 116.070312 338.378906 C 115.746094 338.132812 115.433594 337.890625 115.117188 337.636719 C 114.5625 337.214844 114.019531 336.78125 113.484375 336.347656 C 113.164062 336.09375 112.847656 335.84375 112.539062 335.582031 C 111.957031 335.113281 111.386719 334.632812 110.8125 334.144531 C 110.5625 333.9375 110.308594 333.726562 110.0625 333.507812 C 109.253906 332.816406 108.449219 332.113281 107.652344 331.394531 C 107.535156 331.296875 107.421875 331.1875 107.3125 331.085938 C 106.636719 330.472656 105.957031 329.847656 105.285156 329.226562 C 105.027344 328.972656 104.769531 328.730469 104.511719 328.480469 C 103.996094 327.984375 103.480469 327.492188 102.96875 326.992188 C 102.6875 326.707031 102.402344 326.425781 102.121094 326.140625 C 101.628906 325.644531 101.144531 325.152344 100.664062 324.65625 C 100.40625 324.382812 100.136719 324.121094 99.878906 323.851562 C 99.339844 323.285156 98.816406 322.71875 98.289062 322.152344 C 98.09375 321.933594 97.890625 321.71875 97.691406 321.5 C 96.976562 320.714844 96.269531 319.929688 95.582031 319.132812 C 95.453125 318.992188 95.335938 318.835938 95.203125 318.695312 C 94.644531 318.042969 94.085938 317.394531 93.542969 316.734375 C 93.304688 316.445312 93.0625 316.152344 92.832031 315.867188 C 92.398438 315.324219 91.960938 314.785156 91.527344 314.246094 C 91.289062 313.933594 91.042969 313.621094 90.800781 313.316406 C 90.378906 312.769531 89.96875 312.234375 89.550781 311.683594 C 89.324219 311.382812 89.09375 311.085938 88.863281 310.773438 C 88.40625 310.152344 87.953125 309.53125 87.507812 308.917969 C 87.34375 308.6875 87.179688 308.460938 87.011719 308.230469 C 86.402344 307.375 85.8125 306.511719 85.222656 305.648438 C 85.101562 305.46875 84.988281 305.28125 84.855469 305.09375 C 84.398438 304.410156 83.945312 303.710938 83.5 303.023438 C 83.300781 302.710938 83.097656 302.40625 82.910156 302.09375 C 82.539062 301.511719 82.175781 300.929688 81.820312 300.339844 C 81.609375 300.003906 81.414062 299.664062 81.210938 299.335938 C 80.851562 298.742188 80.507812 298.148438 80.171875 297.5625 C 79.984375 297.238281 79.792969 296.929688 79.613281 296.605469 C 79.222656 295.925781 78.847656 295.238281 78.46875 294.546875 C 78.34375 294.316406 78.21875 294.09375 78.085938 293.863281 C 77.589844 292.949219 77.109375 292.027344 76.636719 291.105469 C 76.519531 290.890625 76.417969 290.667969 76.308594 290.445312 C 75.945312 289.734375 75.582031 289.011719 75.234375 288.300781 C 75.082031 287.976562 74.929688 287.652344 74.769531 287.324219 C 74.476562 286.691406 74.183594 286.066406 73.890625 285.4375 C 73.738281 285.09375 73.578125 284.753906 73.425781 284.40625 C 73.140625 283.769531 72.863281 283.144531 72.589844 282.5 C 72.445312 282.171875 72.304688 281.832031 72.160156 281.507812 C 71.847656 280.757812 71.550781 280.019531 71.246094 279.273438 C 71.15625 279.046875 71.0625 278.835938 70.980469 278.621094 C 70.597656 277.648438 70.230469 276.683594 69.871094 275.722656 C 69.773438 275.457031 69.679688 275.1875 69.585938 274.925781 C 69.324219 274.210938 69.066406 273.492188 68.816406 272.765625 C 68.695312 272.421875 68.585938 272.070312 68.464844 271.722656 C 68.246094 271.078125 68.039062 270.429688 67.828125 269.769531 C 67.707031 269.40625 67.597656 269.042969 67.484375 268.671875 C 67.269531 268.007812 67.078125 267.335938 66.878906 266.667969 C 66.78125 266.332031 66.683594 265.996094 66.578125 265.664062 C 66.347656 264.855469 66.121094 264.046875 65.90625 263.234375 L 65.742188 262.648438 C 65.480469 261.644531 65.226562 260.644531 64.984375 259.640625 C 64.917969 259.335938 64.855469 259.050781 64.789062 258.765625 C 64.617188 258.042969 64.453125 257.324219 64.300781 256.59375 C 64.214844 256.21875 64.144531 255.839844 64.0625 255.464844 C 63.921875 254.800781 63.792969 254.144531 63.664062 253.480469 C 63.589844 253.101562 63.515625 252.726562 63.449219 252.347656 C 63.320312 251.65625 63.207031 250.976562 63.085938 250.285156 C 63.023438 249.933594 62.960938 249.585938 62.910156 249.242188 C 62.773438 248.378906 62.640625 247.515625 62.519531 246.648438 C 62.5 246.484375 62.46875 246.320312 62.441406 246.144531 C 62.304688 245.121094 62.175781 244.085938 62.058594 243.058594 C 62.019531 242.757812 61.988281 242.449219 61.949219 242.136719 C 61.871094 241.40625 61.796875 240.664062 61.730469 239.933594 C 61.691406 239.5625 61.65625 239.1875 61.628906 238.808594 C 61.570312 238.121094 61.511719 237.445312 61.464844 236.761719 C 61.4375 236.382812 61.417969 235.996094 61.390625 235.617188 C 61.34375 234.910156 61.300781 234.207031 61.273438 233.492188 C 61.261719 233.140625 61.242188 232.800781 61.230469 232.457031 C 61.191406 231.523438 61.164062 230.601562 61.140625 229.660156 C 61.140625 229.550781 61.132812 229.429688 61.132812 229.320312 C 61.121094 228.285156 61.109375 227.230469 61.113281 226.191406 C 61.113281 225.863281 61.121094 225.53125 61.132812 225.203125 C 61.136719 224.476562 61.152344 223.75 61.167969 223.027344 C 61.175781 222.644531 61.191406 222.261719 61.207031 221.871094 C 61.234375 221.191406 61.261719 220.507812 61.289062 219.832031 C 61.3125 219.449219 61.335938 219.054688 61.363281 218.667969 C 61.398438 217.9375 61.449219 217.21875 61.503906 216.496094 C 61.53125 216.15625 61.546875 215.824219 61.574219 215.484375 C 61.65625 214.453125 61.757812 213.414062 61.867188 212.378906 L 61.867188 212.339844 C 61.972656 211.289062 62.101562 210.234375 62.238281 209.183594 C 62.277344 208.859375 62.324219 208.527344 62.367188 208.203125 C 62.464844 207.46875 62.570312 206.746094 62.679688 206.019531 C 62.734375 205.636719 62.792969 205.238281 62.859375 204.84375 C 62.96875 204.167969 63.085938 203.492188 63.199219 202.824219 C 63.273438 202.429688 63.339844 202.039062 63.414062 201.648438 C 63.53125 200.953125 63.667969 200.238281 63.808594 199.523438 C 63.875 199.1875 63.941406 198.835938 64.011719 198.496094 C 64.03125 198.398438 64.050781 198.3125 64.074219 198.21875 C 64.507812 196.140625 64.992188 194.066406 65.527344 191.992188 L 65.535156 191.980469 C 65.824219 190.859375 66.128906 189.75 66.445312 188.636719 L 66.445312 188.609375 C 66.765625 187.496094 67.097656 186.378906 67.449219 185.277344 L 67.449219 185.265625 C 67.808594 184.152344 68.167969 183.042969 68.539062 181.9375 L 68.542969 181.921875 C 69.300781 179.699219 70.113281 177.496094 70.988281 175.292969 L 70.992188 175.277344 C 71.425781 174.1875 71.875 173.105469 72.34375 172.015625 L 72.359375 171.96875 C 72.820312 170.890625 73.292969 169.808594 73.796875 168.734375 L 73.796875 168.707031 C 74.296875 167.617188 74.808594 166.542969 75.335938 165.472656 L 75.347656 165.460938 C 75.863281 164.386719 76.40625 163.308594 76.964844 162.234375 L 63.136719 155.027344 C 62.820312 155.628906 62.519531 156.226562 62.210938 156.820312 C 25.894531 228.941406 54.1875 317.085938 126.027344 354.488281 C 156.832031 370.519531 190.691406 374.648438 222.34375 368.519531 C 221.679688 368.566406 221.007812 368.632812 220.339844 368.675781 Z M 220.339844 368.675781 "/><path style=" stroke:none;fill-rule:evenodd;fill:#8fd4ae;fill-opacity:1;" d="M 150.867188 341.050781 C 149.90625 340.628906 148.953125 340.195312 148 339.734375 C 146.605469 339.074219 145.230469 338.382812 143.84375 337.664062 C 131.320312 331.148438 120.355469 322.796875 111.132812 313.105469 C 75.339844 275.5625 65.519531 217.984375 90.808594 169.410156 L 104.636719 176.605469 C 74.039062 235.386719 94.855469 307.363281 150.867188 341.050781 Z M 150.867188 341.050781 "/><path style=" stroke:none;fill-rule:evenodd;fill:#8fd4ae;fill-opacity:1;" d="M 155.953125 5.886719 L 156.984375 5.808594 C 157.878906 5.742188 158.773438 5.695312 159.667969 5.644531 C 159.980469 5.628906 160.300781 5.609375 160.617188 5.601562 C 161.425781 5.5625 162.25 5.527344 163.0625 5.5 C 163.34375 5.496094 163.628906 5.484375 163.914062 5.480469 C 164.597656 5.457031 165.296875 5.453125 165.988281 5.4375 L 166.003906 5.4375 L 166.019531 5.441406 C 166.367188 5.4375 166.71875 5.4375 167.0625 5.429688 C 167.257812 5.429688 167.441406 5.429688 167.640625 5.429688 C 168.683594 5.429688 169.714844 5.4375 170.757812 5.457031 L 171.304688 5.464844 C 172.328125 5.492188 173.355469 5.523438 174.390625 5.566406 L 174.949219 5.59375 C 175.96875 5.644531 176.984375 5.699219 178 5.765625 L 178.628906 5.808594 C 179.632812 5.871094 180.632812 5.953125 181.636719 6.046875 C 181.84375 6.066406 182.046875 6.082031 182.25 6.101562 C 183.292969 6.191406 184.332031 6.308594 185.363281 6.425781 C 185.527344 6.441406 185.695312 6.460938 185.863281 6.480469 C 186.941406 6.605469 188.011719 6.746094 189.082031 6.894531 L 189.542969 6.960938 C 190.628906 7.105469 191.722656 7.273438 192.808594 7.457031 L 193.230469 7.523438 C 194.308594 7.703125 195.382812 7.890625 196.460938 8.09375 L 196.894531 8.175781 C 197.96875 8.382812 199.035156 8.597656 200.117188 8.835938 L 200.496094 8.910156 C 201.582031 9.140625 202.675781 9.394531 203.761719 9.652344 L 204.121094 9.738281 C 205.210938 10 206.308594 10.277344 207.410156 10.574219 L 207.714844 10.65625 C 208.824219 10.949219 209.933594 11.253906 211.042969 11.578125 L 211.3125 11.660156 C 212.441406 11.996094 213.570312 12.34375 214.695312 12.695312 L 214.9375 12.769531 C 216.066406 13.132812 217.199219 13.511719 218.328125 13.90625 L 218.554688 13.984375 C 219.679688 14.375 220.800781 14.773438 221.914062 15.1875 L 222.128906 15.269531 C 223.238281 15.691406 224.339844 16.121094 225.449219 16.558594 L 225.695312 16.65625 C 226.800781 17.109375 227.90625 17.5625 229.003906 18.035156 L 229.210938 18.125 C 230.332031 18.601562 231.441406 19.101562 232.542969 19.605469 L 232.714844 19.6875 C 233.4375 20.023438 234.164062 20.351562 234.886719 20.714844 L 234.988281 20.765625 C 235.367188 20.933594 235.734375 21.117188 236.105469 21.296875 L 236.179688 21.324219 C 236.652344 21.5625 237.121094 21.796875 237.601562 22.035156 C 238.277344 22.375 238.960938 22.71875 239.636719 23.070312 C 240.625 23.585938 241.609375 24.113281 242.582031 24.652344 C 242.894531 24.828125 243.199219 25 243.507812 25.175781 C 244.183594 25.546875 244.84375 25.929688 245.5 26.308594 C 245.851562 26.519531 246.203125 26.726562 246.554688 26.925781 C 247.171875 27.296875 247.789062 27.667969 248.394531 28.046875 C 248.742188 28.253906 249.082031 28.460938 249.425781 28.675781 C 250.074219 29.082031 250.71875 29.496094 251.359375 29.917969 C 251.652344 30.097656 251.941406 30.285156 252.222656 30.472656 C 253.136719 31.074219 254.050781 31.691406 254.945312 32.3125 C 254.996094 32.34375 255.050781 32.382812 255.09375 32.414062 C 255.933594 32.996094 256.773438 33.597656 257.601562 34.199219 C 257.886719 34.410156 258.167969 34.617188 258.4375 34.820312 C 259.035156 35.269531 259.632812 35.710938 260.222656 36.160156 C 260.546875 36.40625 260.859375 36.648438 261.171875 36.902344 C 261.726562 37.324219 262.269531 37.753906 262.800781 38.191406 C 263.121094 38.445312 263.4375 38.695312 263.75 38.960938 C 264.332031 39.425781 264.90625 39.910156 265.476562 40.398438 C 265.726562 40.609375 265.980469 40.816406 266.226562 41.03125 C 267.035156 41.726562 267.84375 42.425781 268.644531 43.148438 C 268.757812 43.25 268.867188 43.351562 268.984375 43.453125 C 269.660156 44.066406 270.339844 44.691406 271.015625 45.320312 C 271.273438 45.570312 271.527344 45.8125 271.789062 46.058594 C 272.304688 46.554688 272.820312 47.046875 273.332031 47.546875 C 273.613281 47.832031 273.898438 48.117188 274.179688 48.398438 C 274.671875 48.894531 275.15625 49.386719 275.644531 49.886719 C 275.902344 50.15625 276.164062 50.425781 276.421875 50.695312 C 276.960938 51.257812 277.488281 51.824219 278.011719 52.390625 C 278.214844 52.609375 278.410156 52.824219 278.609375 53.042969 C 279.324219 53.828125 280.03125 54.613281 280.71875 55.410156 C 280.847656 55.550781 280.964844 55.707031 281.097656 55.847656 C 281.65625 56.503906 282.214844 57.152344 282.761719 57.808594 C 282.996094 58.101562 283.238281 58.390625 283.46875 58.675781 C 283.902344 59.214844 284.339844 59.757812 284.773438 60.296875 C 285.011719 60.605469 285.257812 60.917969 285.5 61.230469 C 285.921875 61.773438 286.335938 62.304688 286.75 62.855469 C 286.976562 63.15625 287.207031 63.453125 287.4375 63.773438 C 287.894531 64.390625 288.347656 65.007812 288.800781 65.628906 C 288.957031 65.859375 289.128906 66.082031 289.289062 66.3125 C 289.898438 67.164062 290.496094 68.03125 291.078125 68.894531 C 291.199219 69.074219 291.3125 69.261719 291.445312 69.449219 C 291.902344 70.136719 292.355469 70.832031 292.800781 71.519531 C 293 71.832031 293.203125 72.140625 293.390625 72.453125 C 293.757812 73.035156 294.125 73.617188 294.480469 74.199219 C 294.691406 74.535156 294.894531 74.875 295.089844 75.203125 C 295.449219 75.796875 295.792969 76.390625 296.132812 76.976562 C 296.316406 77.300781 296.507812 77.609375 296.695312 77.933594 C 297.078125 78.613281 297.457031 79.300781 297.835938 79.992188 C 297.957031 80.222656 298.089844 80.445312 298.222656 80.675781 C 298.714844 81.589844 299.199219 82.511719 299.664062 83.433594 C 299.78125 83.648438 299.890625 83.871094 299.996094 84.09375 C 300.355469 84.804688 300.714844 85.519531 301.066406 86.238281 C 301.21875 86.5625 301.371094 86.886719 301.53125 87.214844 C 301.824219 87.84375 302.121094 88.472656 302.410156 89.097656 C 302.5625 89.445312 302.722656 89.785156 302.878906 90.132812 C 303.164062 90.769531 303.4375 91.398438 303.710938 92.035156 C 303.847656 92.367188 303.996094 92.707031 304.140625 93.03125 C 304.453125 93.78125 304.75 94.519531 305.058594 95.265625 C 305.144531 95.492188 305.238281 95.703125 305.320312 95.925781 C 305.699219 96.894531 306.066406 97.855469 306.421875 98.824219 C 306.523438 99.085938 306.621094 99.351562 306.703125 99.613281 C 306.96875 100.328125 307.230469 101.046875 307.476562 101.773438 C 307.597656 102.117188 307.707031 102.46875 307.835938 102.816406 C 308.054688 103.460938 308.261719 104.109375 308.464844 104.765625 C 308.585938 105.125 308.703125 105.488281 308.8125 105.863281 C 309.027344 106.53125 309.21875 107.195312 309.421875 107.867188 C 309.519531 108.199219 309.621094 108.542969 309.71875 108.871094 C 309.953125 109.679688 310.171875 110.484375 310.386719 111.296875 L 310.550781 111.886719 C 310.816406 112.890625 311.070312 113.890625 311.308594 114.894531 C 311.375 115.191406 311.441406 115.480469 311.507812 115.765625 C 311.679688 116.492188 311.84375 117.210938 312.003906 117.9375 C 312.078125 118.308594 312.15625 118.691406 312.234375 119.0625 C 312.375 119.726562 312.5 120.382812 312.632812 121.046875 C 312.703125 121.421875 312.78125 121.796875 312.847656 122.175781 C 312.972656 122.867188 313.089844 123.550781 313.210938 124.238281 C 313.269531 124.589844 313.332031 124.9375 313.386719 125.289062 C 313.523438 126.148438 313.648438 127.003906 313.777344 127.875 C 313.792969 128.039062 313.832031 128.203125 313.851562 128.382812 C 313.996094 129.40625 314.121094 130.4375 314.238281 131.46875 C 314.273438 131.773438 314.308594 132.078125 314.339844 132.390625 C 314.417969 133.121094 314.496094 133.859375 314.5625 134.59375 C 314.597656 134.96875 314.632812 135.339844 314.660156 135.71875 C 314.71875 136.40625 314.78125 137.082031 314.824219 137.765625 C 314.851562 138.144531 314.878906 138.53125 314.902344 138.910156 C 314.945312 139.613281 314.988281 140.320312 315.015625 141.027344 C 315.027344 141.378906 315.042969 141.71875 315.058594 142.066406 C 315.097656 143.003906 315.125 143.925781 315.148438 144.867188 C 315.148438 144.976562 315.152344 145.097656 315.160156 145.207031 C 315.171875 146.246094 315.179688 147.296875 315.175781 148.335938 C 315.171875 148.664062 315.164062 148.996094 315.160156 149.324219 C 315.152344 150.054688 315.136719 150.78125 315.121094 151.5 C 315.113281 151.882812 315.097656 152.265625 315.082031 152.65625 C 315.054688 153.339844 315.027344 154.019531 315 154.695312 C 314.976562 155.085938 314.957031 155.472656 314.929688 155.859375 C 314.890625 156.589844 314.839844 157.308594 314.785156 158.03125 C 314.757812 158.371094 314.742188 158.703125 314.707031 159.039062 C 314.625 160.070312 314.527344 161.105469 314.417969 162.144531 L 314.417969 162.183594 C 314.308594 163.230469 314.183594 164.292969 314.042969 165.339844 C 314.007812 165.664062 313.957031 165.988281 313.917969 166.316406 C 313.820312 167.046875 313.714844 167.777344 313.605469 168.496094 C 313.550781 168.886719 313.488281 169.277344 313.425781 169.667969 C 313.3125 170.347656 313.199219 171.015625 313.082031 171.691406 C 313.019531 172.089844 312.945312 172.476562 312.871094 172.867188 C 312.742188 173.574219 312.613281 174.285156 312.464844 175 C 312.390625 175.339844 312.332031 175.683594 312.253906 176.03125 C 312.238281 176.125 312.214844 176.21875 312.199219 176.308594 C 311.761719 178.386719 311.277344 180.460938 310.746094 182.535156 L 310.738281 182.554688 C 310.449219 183.671875 310.144531 184.78125 309.828125 185.898438 L 309.828125 185.925781 C 309.507812 187.039062 309.175781 188.152344 308.824219 189.257812 L 308.824219 189.269531 C 308.464844 190.382812 308.105469 191.492188 307.734375 192.59375 L 307.730469 192.613281 C 306.972656 194.835938 306.160156 197.035156 305.289062 199.238281 L 305.28125 199.25 C 304.847656 200.34375 304.402344 201.429688 303.929688 202.515625 L 303.914062 202.566406 C 303.453125 203.640625 302.980469 204.722656 302.476562 205.800781 L 302.476562 205.828125 C 301.976562 206.914062 301.464844 207.992188 300.9375 209.0625 L 300.933594 209.078125 C 300.410156 210.152344 299.875 211.230469 299.3125 212.304688 L 313.144531 219.507812 C 313.457031 218.910156 313.757812 218.3125 314.066406 217.714844 C 350.398438 145.628906 322.105469 57.484375 250.261719 20.089844 C 219.460938 4.050781 185.601562 -0.078125 153.949219 6.054688 C 154.617188 5.988281 155.289062 5.925781 155.953125 5.886719 Z M 155.953125 5.886719 "/><path style=" stroke:none;fill-rule:evenodd;fill:#8fd4ae;fill-opacity:1;" d="M 225.429688 33.503906 C 226.390625 33.925781 227.34375 34.363281 228.292969 34.820312 C 229.6875 35.480469 231.066406 36.171875 232.449219 36.890625 C 244.972656 43.40625 255.9375 51.757812 265.164062 61.445312 C 300.949219 98.992188 310.773438 156.570312 285.488281 205.144531 L 271.65625 197.941406 C 302.257812 139.167969 281.441406 67.199219 225.429688 33.503906 Z M 225.429688 33.503906 "/><path style=" stroke:none;fill-rule:evenodd;fill:#579172;fill-opacity:1;" d="M 187.550781 187.28125 C 173.132812 179.367188 156.6875 178.703125 142.40625 184.0625 C 130.695312 188.460938 120.445312 196.90625 113.953125 208.730469 C 107.460938 220.558594 105.851562 233.746094 108.4375 245.984375 C 111.589844 260.902344 120.988281 274.414062 135.402344 282.324219 Z M 187.550781 187.28125 "/><path style=" stroke:none;fill-rule:evenodd;fill:#579172;fill-opacity:1;" d="M 187.550781 187.28125 C 201.96875 195.191406 218.410156 195.863281 232.6875 190.496094 C 244.398438 186.105469 254.652344 177.65625 261.144531 165.828125 C 267.632812 154.003906 269.246094 140.8125 266.65625 128.574219 C 263.503906 113.652344 254.109375 100.144531 239.6875 92.234375 Z M 187.550781 187.28125 "/><path style=" stroke:none;fill-rule:evenodd;fill:#579172;fill-opacity:1;" d="M 187.550781 187.28125 C 195.460938 172.863281 196.125 156.417969 190.765625 142.144531 C 186.375 130.433594 177.925781 120.175781 166.097656 113.6875 C 154.273438 107.195312 141.078125 105.585938 128.839844 108.171875 C 113.921875 111.324219 100.410156 120.726562 92.5 135.144531 Z M 187.550781 187.28125 "/><path style=" stroke:none;fill-rule:evenodd;fill:#579172;fill-opacity:1;" d="M 187.550781 187.28125 C 179.636719 201.699219 178.96875 218.148438 184.332031 232.421875 C 188.722656 244.132812 197.175781 254.386719 209 260.878906 C 220.828125 267.371094 234.015625 268.984375 246.253906 266.398438 C 261.175781 263.246094 274.6875 253.847656 282.59375 239.429688 Z M 187.550781 187.28125 "/><path style=" stroke:none;fill-rule:nonzero;fill:#579172;fill-opacity:1;" d="M 187.550781 214.382812 C 186.660156 214.382812 185.777344 214.335938 184.894531 214.25 C 184.007812 214.164062 183.132812 214.035156 182.261719 213.859375 C 181.390625 213.6875 180.53125 213.472656 179.683594 213.214844 C 178.832031 212.957031 178 212.65625 177.179688 212.320312 C 176.359375 211.980469 175.558594 211.601562 174.773438 211.179688 C 173.992188 210.761719 173.230469 210.308594 172.492188 209.8125 C 171.753906 209.320312 171.042969 208.792969 170.355469 208.230469 C 169.671875 207.667969 169.015625 207.070312 168.386719 206.445312 C 167.757812 205.816406 167.164062 205.160156 166.601562 204.472656 C 166.035156 203.785156 165.507812 203.074219 165.015625 202.335938 C 164.523438 201.597656 164.066406 200.839844 163.648438 200.054688 C 163.230469 199.273438 162.851562 198.472656 162.511719 197.652344 C 162.171875 196.832031 161.871094 195.996094 161.617188 195.148438 C 161.359375 194.296875 161.140625 193.4375 160.96875 192.566406 C 160.796875 191.695312 160.664062 190.820312 160.578125 189.9375 C 160.492188 189.054688 160.449219 188.167969 160.449219 187.28125 C 160.449219 186.394531 160.492188 185.507812 160.578125 184.625 C 160.664062 183.742188 160.796875 182.863281 160.96875 181.992188 C 161.140625 181.121094 161.359375 180.261719 161.617188 179.414062 C 161.871094 178.5625 162.171875 177.730469 162.511719 176.910156 C 162.851562 176.089844 163.230469 175.289062 163.648438 174.503906 C 164.066406 173.722656 164.523438 172.960938 165.015625 172.222656 C 165.507812 171.484375 166.035156 170.773438 166.601562 170.085938 C 167.164062 169.402344 167.757812 168.746094 168.386719 168.117188 C 169.015625 167.488281 169.671875 166.894531 170.355469 166.332031 C 171.042969 165.769531 171.753906 165.238281 172.492188 164.746094 C 173.230469 164.253906 173.992188 163.796875 174.773438 163.378906 C 175.558594 162.960938 176.359375 162.582031 177.179688 162.242188 C 178 161.902344 178.832031 161.605469 179.683594 161.347656 C 180.53125 161.089844 181.390625 160.875 182.261719 160.699219 C 183.132812 160.527344 184.007812 160.398438 184.894531 160.308594 C 185.777344 160.222656 186.660156 160.179688 187.550781 160.179688 C 188.4375 160.179688 189.324219 160.222656 190.207031 160.308594 C 191.089844 160.398438 191.964844 160.527344 192.835938 160.699219 C 193.707031 160.875 194.566406 161.089844 195.417969 161.347656 C 196.265625 161.605469 197.101562 161.902344 197.921875 162.242188 C 198.742188 162.582031 199.542969 162.960938 200.324219 163.378906 C 201.109375 163.796875 201.867188 164.253906 202.605469 164.746094 C 203.34375 165.238281 204.054688 165.769531 204.742188 166.332031 C 205.429688 166.894531 206.085938 167.488281 206.710938 168.117188 C 207.339844 168.746094 207.9375 169.402344 208.5 170.085938 C 209.0625 170.773438 209.589844 171.484375 210.082031 172.222656 C 210.578125 172.960938 211.03125 173.722656 211.449219 174.503906 C 211.867188 175.289062 212.246094 176.089844 212.585938 176.910156 C 212.925781 177.730469 213.226562 178.5625 213.484375 179.414062 C 213.742188 180.261719 213.957031 181.121094 214.128906 181.992188 C 214.304688 182.863281 214.433594 183.742188 214.519531 184.625 C 214.605469 185.507812 214.652344 186.394531 214.652344 187.28125 C 214.652344 188.167969 214.605469 189.054688 214.519531 189.9375 C 214.433594 190.820312 214.304688 191.695312 214.128906 192.566406 C 213.957031 193.4375 213.742188 194.296875 213.484375 195.148438 C 213.226562 195.996094 212.925781 196.832031 212.585938 197.652344 C 212.246094 198.472656 211.867188 199.273438 211.449219 200.054688 C 211.03125 200.839844 210.578125 201.597656 210.082031 202.335938 C 209.589844 203.074219 209.0625 203.785156 208.5 204.472656 C 207.9375 205.160156 207.339844 205.816406 206.710938 206.445312 C 206.085938 207.070312 205.429688 207.667969 204.742188 208.230469 C 204.054688 208.792969 203.34375 209.320312 202.605469 209.8125 C 201.867188 210.308594 201.109375 210.761719 200.324219 211.179688 C 199.542969 211.601562 198.742188 211.980469 197.921875 212.320312 C 197.101562 212.65625 196.265625 212.957031 195.417969 213.214844 C 194.566406 213.472656 193.707031 213.6875 192.835938 213.859375 C 191.964844 214.035156 191.089844 214.164062 190.207031 214.25 C 189.324219 214.335938 188.4375 214.382812 187.550781 214.382812 Z M 187.550781 214.382812 "/><path style=" stroke:none;fill-rule:nonzero;fill:#ffffff;fill-opacity:1;" d="M 182.859375 195.828125 C 176.355469 192.261719 171.746094 186.582031 169.425781 180.109375 C 165.851562 189.113281 169.457031 199.585938 178.175781 204.367188 C 186.890625 209.148438 197.664062 206.5625 203.339844 198.710938 C 196.625 200.230469 189.359375 199.398438 182.859375 195.828125 Z M 182.859375 195.828125 "/><g clip-rule="nonzero" clip-path="url(#3de676010a)"><g clip-rule="nonzero" clip-path="url(#ba74ea3aef)"><g clip-rule="nonzero" clip-path="url(#6d5f7a4a9f)"><path style=" stroke:none;fill-rule:nonzero;fill:#579172;fill-opacity:1;" d="M 15.378906 30.722656 L 35.378906 12.707031 L 51.121094 30.179688 L 31.121094 48.195312 Z M 15.378906 30.722656 "/></g></g></g><g clip-rule="nonzero" clip-path="url(#fee3592cae)"><g clip-rule="nonzero" clip-path="url(#30804ff38e)"><g clip-rule="nonzero" clip-path="url(#f6483b78e2)"><path style=" stroke:none;fill-rule:nonzero;fill:#579172;fill-opacity:1;" d="M 335.628906 12.738281 L 355.375 31.03125 L 339.390625 48.285156 L 319.644531 29.988281 Z M 335.628906 12.738281 "/></g></g></g><g clip-rule="nonzero" clip-path="url(#0f0974c460)"><g clip-rule="nonzero" clip-path="url(#68ee0ec7a8)"><g clip-rule="nonzero" clip-path="url(#5d104a2546)"><path style=" stroke:none;fill-rule:nonzero;fill:#579172;fill-opacity:1;" d="M 358.671875 342.410156 L 338.90625 360.683594 L 322.941406 343.410156 L 342.707031 325.140625 Z M 358.671875 342.410156 "/></g></g></g><g clip-rule="nonzero" clip-path="url(#c3ba88edda)"><g clip-rule="nonzero" clip-path="url(#15a5354d2f)"><g clip-rule="nonzero" clip-path="url(#e34d745282)"><path style=" stroke:none;fill-rule:nonzero;fill:#579172;fill-opacity:1;" d="M 32.820312 360.75 L 15.207031 340.394531 L 32.992188 325.003906 L 50.605469 345.363281 Z M 32.820312 360.75 "/></g></g></g></g></svg>